<?xml version="1.0" standalone="no"?><!DOCTYPE svg PUBLIC "-//W3C//DTD SVG 1.1//EN" "http://www.w3.org/Graphics/SVG/1.1/DTD/svg11.dtd"><svg t="1525834936939" class="icon" style="" viewBox="0 0 1065 1024" version="1.1" xmlns="http://www.w3.org/2000/svg" p-id="6402" xmlns:xlink="http://www.w3.org/1999/xlink" width="208.0078125" height="200"><defs><style type="text/css"></style></defs><path d="M963.848581 453.762134a101.60326 101.60326 0 0 0-98.391009 76.638755h-32.754848V253.691985h32.754848a101.362974 101.362974 0 1 0 0-50.713104h-54.001235c-39.457577-62.474497-85.74435-110.911202-138.101519-144.298382-50.333704-32.122515-107.24367-51.21897-169.844634-56.909967l-0.126467-0.126466c-0.126467 0-0.126467 0.126467-0.252933 0.126466-13.152526-1.138199-26.684451-1.770532-40.342843-1.770532-79.57278 0-147.33358 22.005187-201.587749 65.636162-53.621835 42.998641-95.482277 108.38187-124.31666 194.252686l-0.505866 1.517599-0.252934 1.517599c-28.834383 143.666049-65.383228 238.389527-108.508336 281.641102-15.302458 15.302458-24.281586 30.225516-26.810918 44.51624a43.593034 43.593034 0 0 0 7.840929 34.398913c12.393726 17.325923 38.698777 29.972582 62.600963 29.972583a26.355638 26.355638 0 0 1 19.096456 8.220328c5.438063 5.438063 9.990861 13.531925 13.658392 24.534519 7.208596 21.625787 10.876127 54.633568 10.876127 98.011609 0 21.625787 7.335062 38.192911 21.752254 48.942572 14.670125 11.002594 36.042979 16.31419 65.256762 16.31419 39.71051 0 69.05076 9.105595 87.009015 27.190318 14.417192 14.417192 21.752254 34.651846 21.752254 59.945165v83.088551l391.667037 4.299864V827.470915q7.398296-9.864394 14.417192-19.349389a8.081215 8.081215 0 0 0 0.885266 0.252934l0.632333-2.149932c35.537113-48.310238 63.10683-88.653081 82.076819-120.26973 10.876127-18.084723 19.096455-33.640114 24.534519-46.286773a127.958898 127.958898 0 0 0 6.070396-16.946523 48.854045 48.854045 0 0 0 2.023465-12.899593v-28.707916h32.881315a101.464147 101.464147 0 1 0 98.011609-127.351859z m-181.606027 76.638755h-152.898111v-109.899469h0.252934v-50.586637h-0.252934v-116.222798h152.771644v276.708904z m181.606027-352.841793a50.966037 50.966037 0 1 1-50.83957 50.966037 50.95339 50.95339 0 0 1 50.83957-50.966037z m-213.349142 25.546252h-171.488699v0.252933h-0.252934v166.682969H417.361141a101.71708 101.71708 0 0 0-61.083364-62.474497c2.782265-43.757441 14.037792-84.353217 33.640113-121.154996 26.305051-49.448438 68.544893-93.964678 125.707793-132.410522C610.500921 66.900827 687.999649 116.096332 750.499439 203.105348z m-429.101148 250.656786a50.966037 50.966037 0 1 1 50.83957-50.966037 50.95339 50.95339 0 0 1-50.83957 50.966037z m340.3216 343.356799l-10.117327 13.531925v162.003705l-290.493763-3.161664v-33.007781c0-39.204644-12.267259-71.327158-36.548846-95.608744-27.82265-27.949117-69.177226-42.113375-122.799061-42.113375-25.419785 0-33.513647-5.18513-34.90478-6.196863s-1.517599-7.335062-1.517599-8.599729c0-49.448438-4.426331-86.756082-13.531925-113.9464-6.196863-18.590589-14.670125-33.134247-25.799185-44.263307a76.234062 76.234062 0 0 0-54.886501-23.01692c-7.461529 0-15.808324-3.920464-19.728789-7.082129 1.264666-2.782265 4.426331-7.967395 12.014327-15.428924 50.83957-50.966037 90.803013-151.001112 122.040262-305.796221 25.672718-75.753489 61.842164-132.789922 107.496603-169.338768 39.457577-31.616648 86.376683-49.195505 142.654317-53.495368-79.673953 69.177226-123.051995 153.151044-129.628258 251.036186a101.527381 101.527381 0 0 0 15.555391 201.840682c2.149932 0 4.299864-0.126467 6.32333-0.252933 1.517599 5.94393 3.035198 11.761393 4.679264 17.325923 13.911325 47.804372 34.14598 87.388415 61.96863 120.775596 52.483636 63.10683 136.96332 110.531802 270.132642 151.127578-1.011733 1.138199-1.896999 2.402865-2.908732 3.667531z m120.522663-188.814623a3.907818 3.907818 0 0 1-0.252933 1.011733 92.181499 92.181499 0 0 1-3.793998 10.370261c-4.552797 10.496727-11.761393 24.028653-21.372854 40.216376-14.670125 24.408052-34.90478 54.633568-60.324565 90.044214-133.169322-38.572311-215.119674-82.329752-263.176979-140.124985-28.454983-34.14598-45.65444-73.47709-57.289366-121.534395a101.843547 101.843547 0 0 0 45.27504-67.786094h157.450907v160.739039h50.586637v-0.252933h152.771644V608.30431z m181.606027-2.149932a50.966037 50.966037 0 1 1 50.83957-50.966037 50.95339 50.95339 0 0 1-50.83957 50.966037z" fill="#ffffff" p-id="6403"></path><path d="M321.031537 402.049944m-102.197653 0a102.197653 102.197653 0 1 0 204.395307 0 102.197653 102.197653 0 1 0-204.395307 0Z" fill="#ffffff" p-id="6404"></path></svg>