<?xml version="1.0" standalone="no"?><!DOCTYPE svg PUBLIC "-//W3C//DTD SVG 1.1//EN" "http://www.w3.org/Graphics/SVG/1.1/DTD/svg11.dtd"><svg t="1534832886322" class="icon" style="" viewBox="0 0 1025 1024" version="1.1" xmlns="http://www.w3.org/2000/svg" p-id="11191" xmlns:xlink="http://www.w3.org/1999/xlink" width="200.1953125" height="200"><defs><style type="text/css"></style></defs><path d="M1.984 145.488s-44.976 228.992 293.6 567.568c2.464 2.448 4.832 4.672 7.264 7.088 2.432 2.432 4.656 4.816 7.104 7.28 338.576 338.576 567.568 293.6 567.568 293.6 14.016-1.872 43.472-10.272 53.44-20.272 0 0 52.096-42.816 84.016-95.568 31.936-52.736-28.416-132.304-63.136-167.008-70.048-70.048-134.464-83.712-162.832-64.24-12.752 8.752-63.424 63.36-63.424 63.36-9.984 10-29.744 18.304-43.872 18.48 0 0-88.544 0.896-253.248-161.248C266.32 429.84 267.2 341.296 267.2 341.296c0.192-14.112 8.48-33.888 18.48-43.872 0 0 62.816-62.768 63.36-63.424 23.824-29.824-15.632-103.968-64.24-162.832-31.248-37.84-56.56-59.984-103.904-69.008C117.712-9.872 4.24 74.288 1.984 145.488z" p-id="11192"></path></svg>