<?xml version="1.0" standalone="no"?><!DOCTYPE svg PUBLIC "-//W3C//DTD SVG 1.1//EN" "http://www.w3.org/Graphics/SVG/1.1/DTD/svg11.dtd"><svg t="1534832802344" class="icon" style="" viewBox="0 0 1024 1024" version="1.1" xmlns="http://www.w3.org/2000/svg" p-id="10417" xmlns:xlink="http://www.w3.org/1999/xlink" width="200" height="200"><defs><style type="text/css"></style></defs><path d="M982.08426667 814.235648c-14.21038933 63.56992-90.63082667 162.97710933-169.033728 170.41544533l-5.40672 0.67720534c-119.046144 4.72951467-289.46158933-91.95793067-455.80834134-259.03650134l-61.571072-61.505536C123.895808 497.713152 29.21813333 328.64119467 36.64554667 211.65943467c5.41764267-82.50436267 119.69604267-161.60631467 188.67268266-168.38382934 33.81111467-3.36964267 48.02696533 12.85051733 52.772864 22.30408534 45.285376 65.60699733 104.824832 181.92247467 108.86075734 225.214464v3.36964266l-0.638976 2.67605334c-6.766592 23.68580267-25.02382933 36.51447467-40.57770667 47.34976-20.96059733 14.88759467-33.13937067 24.346624-32.473088 48.00512 0 7.471104 9.453568 39.911424 119.70696533 152.16366933l46.65617067 47.32245333c109.56526933 107.52273067 142.000128 116.98176 149.44938667 117.686272 24.36846933 1.30525867 34.49924267-10.15808 50.06404266-31.1296 11.49064533-15.54295467 25.02382933-33.13937067 49.364992-39.206912l3.391488-0.67720533 3.39694934 0.67720533c43.958272 5.40672 160.940032 66.26235733 228.53495466 112.934912 9.453568 5.46133333 27.01175467 21.73064533 18.25723734 62.27012267z m-35.028992-534.12932267c0 118.70208-96.26146133 214.95261867-214.97992534 214.95261867-118.74030933 0-215.00177067-96.25053867-215.00177066-214.95261867 0-118.74030933 96.26146133-214.96354133 215.00177066-214.96354133 118.718464 0 214.97992533 96.223232 214.97992534 214.96354133z m-85.377024-105.18528a22.25493333 22.25493333 0 0 0-31.51189334 0l-148.64110933 148.62472534-47.52452267-47.48629334a22.29316267 22.29316267 0 0 0-31.53373866 31.51735467l62.390272 62.390272a22.1184 22.1184 0 0 0 16.62429866 6.438912 22.16209067 22.16209067 0 0 0 16.67345067-6.438912l163.50139733-163.51232a22.28224 22.28224 0 0 0 0.02184534-31.53373867z" p-id="10418"></path></svg>