<?xml version="1.0" standalone="no"?><!DOCTYPE svg PUBLIC "-//W3C//DTD SVG 1.1//EN" "http://www.w3.org/Graphics/SVG/1.1/DTD/svg11.dtd"><svg t="1534834006581" class="icon" style="" viewBox="0 0 1024 1024" version="1.1" xmlns="http://www.w3.org/2000/svg" p-id="11853" xmlns:xlink="http://www.w3.org/1999/xlink" width="200" height="200"><defs><style type="text/css"></style></defs><path d="M110.411294 808.96a485.255529 485.255529 0 1 1 401.769412 212.931765v-97.039059a388.216471 388.216471 0 1 0-331.535059-186.127059l105.050353-105.050353v258.831059H26.864941l83.546353-83.546353z m314.066824-184.741647a32.045176 32.045176 0 0 1-9.396706-22.768941V310.031059c0-17.829647 14.456471-32.225882 32.346353-32.225883h32.406588c18.010353 0 32.286118 14.456471 32.286118 32.225883v226.605176h226.665411c17.769412 0 32.165647 14.456471 32.165647 32.286118v32.406588c0 18.070588-14.396235 32.346353-32.165647 32.346353h-291.538823a32.045176 32.045176 0 0 1-22.708706-9.456941h-0.060235z" p-id="11854"></path></svg>