<?xml version="1.0" standalone="no"?><!DOCTYPE svg PUBLIC "-//W3C//DTD SVG 1.1//EN" "http://www.w3.org/Graphics/SVG/1.1/DTD/svg11.dtd"><svg t="1534129745553" class="icon" style="" viewBox="0 0 1024 1024" version="1.1" xmlns="http://www.w3.org/2000/svg" p-id="2709" xmlns:xlink="http://www.w3.org/1999/xlink" width="200" height="200"><defs><style type="text/css"></style></defs><path d="M452 628.8c17.6 0 32 14.4 32 32v8.8c0 17.6-14.4 32-32 32s-32-14.4-32-32v-8.8c0-17.6 14.4-32 32-32zM304 374.4s2.4 21.6 27.2 21.6 26.4-21.6 26.4-21.6C355.2 304 388 269.6 456 273.6c44.8 4.8 68 30.4 69.6 76-3.2 20-20 46.4-50.4 78.4-40 40.8-60.8 76.8-60.8 108.8v32.8s3.2 20 25.6 20 25.6-20 25.6-20v-23.2c0-27.2 19.2-59.2 57.6-96.8 40.8-36.8 60.8-71.2 60.8-101.6-3.2-84.8-47.2-128.8-132.8-132C352.8 216 304 268 304 374.4z" fill="" p-id="2710"></path><path d="M558.4 893.6H116c-28.8 0-53.6-24.8-53.6-53.6V77.6c0-28.8 24.8-53.6 53.6-53.6h656c28.8 0 53.6 24.8 53.6 53.6v24h-0.8v398.4l-266.4 393.6zM116 72c-2.4 0-5.6 3.2-5.6 5.6V840c0 2.4 3.2 5.6 5.6 5.6h416.8l244-360V75.2c-0.8-1.6-3.2-3.2-4.8-3.2h-656zM632.8 851.2l-4 5.6v7.2l-1.6 118.4v35.2l32.8-12.8 110.4-44.8 6.4-2.4 4-5.6 204.8-299.2 12.8-19.2-19.2-12.8-108.8-74.4-19.2-12.8-12.8 19.2-205.6 298.4zM844 584l108.8 74.4-6.4-32-204.8 299.2 10.4-8.8-110.4 44.8 32 21.6 1.6-118.4-4 12.8 204.8-299.2-32 5.6z" fill="" p-id="2711"></path><path d="M751.112 934.664l-89.136-60.984 27.104-39.616 89.136 60.992z" fill="" p-id="2712"></path></svg>