<?xml version="1.0" standalone="no"?><!DOCTYPE svg PUBLIC "-//W3C//DTD SVG 1.1//EN" "http://www.w3.org/Graphics/SVG/1.1/DTD/svg11.dtd"><svg t="1534759448518" class="icon" style="" viewBox="0 0 1025 1024" version="1.1" xmlns="http://www.w3.org/2000/svg" p-id="1448" xmlns:xlink="http://www.w3.org/1999/xlink" width="200.1953125" height="200"><defs><style type="text/css"></style></defs><path d="M865.587273 725.43117l2.284443 0c13.692898 0 24.722906 11.024847 24.722906 24.724626l0 249.119577c0 13.691178-11.030008 24.724626-24.722906 24.724626l-2.284443 0c-13.691178 0-24.721186-11.033448-24.721186-24.724626L840.866087 750.155797C840.866087 736.841346 851.896095 725.43117 865.587273 725.43117z" p-id="1449"></path><path d="M1015.825546 873.766888l0 2.275842c0 13.694618-11.028288 24.724626-24.722906 24.724626L741.974462 900.767356c-13.689458 0-24.722906-11.030008-24.722906-24.724626l0-2.275842c0-13.694618 11.033448-24.724626 24.722906-24.724626L991.10092 849.042261C1004.797258 849.042261 1015.825546 860.072269 1015.825546 873.766888z" p-id="1450"></path><path d="M462.611815 212.150472c89.566348 0 208.9956 27.955187 208.9956 269.476581 0 19.782453 16.360949 36.134802 36.136522 36.134802 19.779013 0 36.134802-16.352348 36.134802-36.134802 0-282.216481-152.519276-340.98069-280.50831-340.98069-127.982153 0-280.503149 59.331879-280.503149 340.98069 0 119.240029 54.768153 234.487442 140.157823 299.141661l0 5.32406C133.232244 813.294508 12.280603 890.690346 12.280603 986.537194c0 19.777293 16.355789 36.136522 36.133081 36.136522 19.779013 0 36.133081-16.357509 36.133081-36.136522 0-50.581153 104.213965-114.672862 278.793257-133.880764 18.065681-1.711612 31.946082-17.49629 31.946082-35.565411l0-55.339263c0-12.170509-6.466282-23.197077-16.355789-30.23447-73.974335-48.308751-123.992978-148.908548-123.992978-250.268679C254.371388 239.347045 373.040306 212.150472 462.611815 212.150472z" p-id="1451"></path><path d="M906.665968 387.300874l-45.451477-11.599399C846.759538 168.601551 673.320748 4.484596 462.611815 4.484596c-214.704988 0-389.857111 170.013846-399.177227 382.245167L36.626783 409.35917c-8.179614 7.033952-12.74334 16.925179-12.74334 27.384076l0 142.056938c0 19.779013 16.357509 36.136522 36.134802 36.136522s36.133081-16.357509 36.133081-36.136522l0-125.131759 26.812965-22.060016c8.177894-7.035673 12.7399-16.923459 12.7399-27.382356 0-181.043854 147.195216-327.667959 327.667959-327.667959 180.476183 0 327.669679 147.193495 327.669679 327.667959 0 16.355789 11.031728 30.807301 27.384076 34.99086l44.882086 11.031728 0 129.127815c0 19.779013 16.354068 36.131361 36.133081 36.131361 19.777293 0 36.131361-16.352348 36.131361-36.131361l0-157.083002C934.050044 405.369995 923.021756 390.724099 906.665968 387.300874z" p-id="1452"></path><path d="M772.214093 533.924979c-6.464562 19.209622-66.370992 68.079163-267.193858 68.079163-19.777293 0-36.133081 16.357509-36.133081 36.138242 0 19.775573 16.357509 36.127921 36.133081 36.127921 305.420439 0 335.274742-106.493248 338.128576-127.983873l-35.56025-4.562006L772.214093 533.924979z" p-id="1453"></path><path d="M603.526531 785.33244l0-23.959131c0-19.782453-16.352348-36.134802-36.131361-36.134802-19.777293 0-36.134802 16.352348-36.134802 36.134802l0 55.335823c0 18.072561 13.880401 33.662855 31.947802 35.567131 18.636791 2.281003 36.704192 4.562006 53.629371 7.603343l0-72.835553C612.850088 787.044052 608.095418 786.474661 603.526531 785.33244z" p-id="1454"></path></svg>