<?xml version="1.0" standalone="no"?><!DOCTYPE svg PUBLIC "-//W3C//DTD SVG 1.1//EN" "http://www.w3.org/Graphics/SVG/1.1/DTD/svg11.dtd"><svg t="1525920645898" class="icon" style="" viewBox="0 0 1024 1024" version="1.1" xmlns="http://www.w3.org/2000/svg" p-id="1899" xmlns:xlink="http://www.w3.org/1999/xlink" width="200" height="200"><defs><style type="text/css"></style></defs><path d="M486.4 563.2c-155.2896 0-281.6-126.3104-281.6-281.6s126.3104-281.6 281.6-281.6 281.6 126.3104 281.6 281.6-126.3104 281.6-281.6 281.6zM486.4 51.2c-127.0272 0-230.4 103.3728-230.4 230.4s103.3728 230.4 230.4 230.4c127.0272 0 230.4-103.3728 230.4-230.4s-103.3728-230.4-230.4-230.4z" p-id="1900"></path><path d="M896 1024l-819.2 0c-42.3424 0-76.8-34.4576-76.8-76.8 0-3.4816 0.7168-86.272 62.72-168.96 36.096-48.128 85.504-86.3744 146.8928-113.6128 74.9568-33.3312 168.0896-50.2272 276.7872-50.2272s201.8304 16.896 276.7872 50.2272c61.3888 27.2896 110.7968 65.4848 146.8928 113.6128 62.0032 82.688 62.72 165.4784 62.72 168.96 0 42.3424-34.4576 76.8-76.8 76.8zM486.4 665.6c-178.5344 0-310.272 48.7936-380.9792 141.1072-52.992 69.1712-54.1696 139.8784-54.2208 140.5952 0 14.0288 11.4688 25.4976 25.6 25.4976l819.2 0c14.1312 0 25.6-11.4688 25.6-25.6 0-0.6144-1.1776-71.3216-54.2208-140.4928-70.7584-92.3136-202.496-141.1072-380.9792-141.1072z" p-id="1901"></path></svg>