<?xml version="1.0" standalone="no"?><!DOCTYPE svg PUBLIC "-//W3C//DTD SVG 1.1//EN" "http://www.w3.org/Graphics/SVG/1.1/DTD/svg11.dtd"><svg t="1531187000579" class="icon" style="" viewBox="0 0 1024 1024" version="1.1" xmlns="http://www.w3.org/2000/svg" p-id="23651" xmlns:xlink="http://www.w3.org/1999/xlink" width="200" height="200"><defs><style type="text/css"></style></defs><path d="M602 104.3H422c-19.8 0-36 16.2-36 36v180c0 19.8 16.2 36 36 36h180c19.8 0 36-16.2 36-36v-180c0-20.7-16.2-36-36-36zM602 636.2H422c-19.8 0-36 16.2-36 36v180c0 19.8 16.2 36 36 36h180c19.8 0 36-16.2 36-36v-180c0-19.8-16.2-36-36-36zM282.5 636.2h-180c-19.8 0-36 16.2-36 36v180c0 19.8 16.2 36 36 36h180c19.8 0 36-16.2 36-36v-180c0-19.8-16.2-36-36-36zM921.5 636.2h-180c-19.8 0-36 16.2-36 36v180c0 19.8 16.2 36 36 36h180c19.8 0 36-16.2 36-36v-180c0-19.8-16.2-36-36-36z" fill="#bfcbd9" p-id="23652"></path><path d="M485 350h54v295.2h-54z" fill="#bfcbd9" p-id="23653"></path><path d="M192.5 461.6h639v54h-639z" fill="#bfcbd9" p-id="23654"></path><path d="M165.5 461.6h54v183.6h-54zM804.5 461.6h54v183.6h-54z" fill="#bfcbd9" p-id="23655"></path></svg>