<?xml version="1.0" standalone="no"?><!DOCTYPE svg PUBLIC "-//W3C//DTD SVG 1.1//EN" "http://www.w3.org/Graphics/SVG/1.1/DTD/svg11.dtd"><svg t="1534832399015" class="icon" style="" viewBox="0 0 1024 1024" version="1.1" xmlns="http://www.w3.org/2000/svg" p-id="7888" xmlns:xlink="http://www.w3.org/1999/xlink" width="200" height="200"><defs><style type="text/css"></style></defs><path d="M943.2 680l-229.6 229.6c-12.8 12.8-33.6 12.8-45.6 0-0.8-0.8-0.8-0.8-0.8-1.6L550.4 791.2c-11.2-11.2-11.2-28.8 0-39.2 11.2-11.2 28.8-11.2 39.2 0l95.2 95.2 212.8-212.8c12.8-12.8 33.6-12.8 45.6 0C956 646.4 956 667.2 943.2 680zM541.6 564 541.6 564c-195.2 0-353.6 174.4-353.6 385.6 0 9.6 0.8 20 1.6 29.6l-1.6 0L72 979.2c-0.8-9.6-1.6-19.2-1.6-29.6 0-198.4 108.8-369.6 266.4-450.4-54.4-48.8-89.6-118.4-89.6-197.6C247.2 155.2 366.4 36.8 512 36.8c146.4 0 264.8 118.4 264.8 264.8C777.6 438.4 674.4 548.8 541.6 564zM512 154.4c-81.6 0-147.2 65.6-147.2 147.2S431.2 448.8 512 448.8s147.2-65.6 147.2-147.2S593.6 154.4 512 154.4z" p-id="7889"></path></svg>