<?xml version="1.0" standalone="no"?><!DOCTYPE svg PUBLIC "-//W3C//DTD SVG 1.1//EN" "http://www.w3.org/Graphics/SVG/1.1/DTD/svg11.dtd"><svg t="1534471113479" class="icon" style="" viewBox="0 0 1024 1024" version="1.1" xmlns="http://www.w3.org/2000/svg" p-id="2321" xmlns:xlink="http://www.w3.org/1999/xlink" width="200" height="200"><defs><style type="text/css"></style></defs><path d="M846.416977 421.154969c-7.857968-29.366841-19.485797-57.192583-34.354436-82.913385l65.271586-98.513688-0.107447-0.107447-92.849688-92.848665-0.107447-0.107447-98.513688 65.271586c-25.718755-14.869662-53.544497-26.495444-82.912361-34.355459L579.340199 61.780065l-0.152473 0L447.877075 61.780065l-0.151449 0-23.502273 115.801423c-29.366841 7.858992-57.192583 19.485797-82.914408 34.355459l-98.513688-65.271586-0.107447 0.107447-92.849688 92.849688-0.107447 0.107447 65.272609 98.513688c-14.869662 25.720801-26.495444 53.546543-34.355459 82.913385L64.848449 444.657242l0 0.152473 0 131.309628 0 0.151449 115.801423 23.50125c7.860015 29.365818 19.485797 57.192583 34.355459 82.913385l-65.271586 98.514711 0.107447 0.106424 92.849688 92.848665 0.107447 0.107447 98.513688-65.271586c25.720801 14.869662 53.546543 26.495444 82.914408 34.355459l23.502273 115.801423 0.152473 0 131.309628 0 0.151449 0 23.502273-115.801423c29.366841-7.860015 57.192583-19.485797 82.912361-34.355459l98.513688 65.271586 0.107447-0.107447 92.850711-92.848665 0.107447-0.106424-65.272609-98.514711c14.870686-25.720801 26.497491-53.546543 34.354436-82.913385l115.802446-23.50125 0-0.152473L962.220447 444.808692l0-0.151449L846.416977 421.154969zM669.350213 510.465041c0 86.054935-69.761853 155.815765-155.817812 155.815765-86.054935 0-155.818835-69.76083-155.818835-155.815765 0-86.055958 69.762877-155.816788 155.818835-155.816788C599.589382 354.648252 669.350213 424.409083 669.350213 510.465041z" p-id="2322"></path></svg>