<?xml version="1.0" standalone="no"?><!DOCTYPE svg PUBLIC "-//W3C//DTD SVG 1.1//EN" "http://www.w3.org/Graphics/SVG/1.1/DTD/svg11.dtd"><svg t="1525923361220" class="icon" style="" viewBox="0 0 1024 1024" version="1.1" xmlns="http://www.w3.org/2000/svg" p-id="3756" xmlns:xlink="http://www.w3.org/1999/xlink" width="200" height="200"><defs><style type="text/css"></style></defs><path d="M636.16512 957.44l-70.80448-70.8096c107.59168-92.06272 176.03072-228.58752 176.03072-381.31712 0-145.49504-62.2848-276.1216-161.1776-367.77472L651.19232 66.56c117.01248 109.82912 190.51008 265.47712 190.51008 438.60992 0 180.44416-79.77984 341.90848-205.53728 452.27008z" fill="#8cc5fe" p-id="3757"></path><path d="M445.08672 766.35648l-72.93952-72.92928c66.28352-36.64384 111.19104-107.16672 111.19104-188.25728 0-73.61536-37.04832-138.5216-93.47072-177.29024l71.62368-71.61344C535.72096 313.97376 583.68 403.88096 583.68 505.16992c0 108.65664-54.95808 204.44672-138.59328 261.18656zM253.96736 591.18592c-39.5776 0-71.66976-32.08192-71.66976-71.67488 0-39.59808 32.08704-71.67488 71.66976-71.67488 39.60832 0 71.68 32.0768 71.68 71.67488 0 39.59296-32.07168 71.67488-71.68 71.67488z" fill="#8cc5fe" p-id="3758"></path></svg>